<svg xmlns="http://www.w3.org/2000/svg" viewBox="0 0 136 136"><defs><style>.cls-1{fill:#fff;}.cls-2{fill:#fe0312;}.cls-3{fill:#51c9ff;}</style></defs><title>アセット 2</title><g id="レイヤー_2" data-name="レイヤー 2"><g id="レイヤー_1-2" data-name="レイヤー 1"><rect class="cls-1" width="136" height="136" rx="25.86"/><path class="cls-2" d="M103,41.37,73.84,23.86a11.42,11.42,0,0,0-5.36-1.6L68.1,22l-.29.22a11.4,11.4,0,0,0-5.69,1.62L32.92,41.37a11.44,11.44,0,0,0-5.56,9.85V86.08a11.46,11.46,0,0,0,5.56,9.85l29.2,17.51a11.44,11.44,0,0,0,11.76,0l29.2-17.51a11.46,11.46,0,0,0,5.56-9.85V51.18A11.43,11.43,0,0,0,103,41.37Z"/><path class="cls-1" d="M58.18,78.38c2,1.09,3.65.36,3.65-1.67a7.25,7.25,0,0,0-3.65-5.65c-2-1.1-3.67-.37-3.67,1.66A7.33,7.33,0,0,0,58.18,78.38Z"/><path class="cls-1" d="M37.74,87.68c2,1.09,3.65.36,3.65-1.67a7.31,7.31,0,0,0-3.65-5.65c-2-1.1-3.67-.36-3.67,1.66A7.33,7.33,0,0,0,37.74,87.68Z"/><path class="cls-1" d="M48,83c2,1.09,3.65.36,3.65-1.67A7.25,7.25,0,0,0,48,75.71c-2-1.1-3.67-.36-3.67,1.66A7.33,7.33,0,0,0,48,83Z"/><path class="cls-1" d="M97.35,59.92a7.28,7.28,0,0,0-3.65,5.65c0,2,1.64,2.77,3.65,1.67A7.31,7.31,0,0,0,101,61.58C101,59.55,99.4,58.81,97.35,59.92Z"/><path class="cls-1" d="M76.93,71.06a7.26,7.26,0,0,0-3.65,5.68c0,2,1.63,2.76,3.65,1.66a7.28,7.28,0,0,0,3.67-5.66C80.6,70.69,79,70,76.93,71.06Z"/><path class="cls-1" d="M97.35,80.36A7.31,7.31,0,0,0,93.7,86c0,2,1.64,2.77,3.65,1.67A7.31,7.31,0,0,0,101,82C101,80,99.4,79.25,97.35,80.36Z"/><path class="cls-1" d="M76.93,91.5a7.25,7.25,0,0,0-3.65,5.65c0,2,1.63,2.77,3.65,1.67a7.28,7.28,0,0,0,3.67-5.67C80.6,91.15,79,90.39,76.93,91.5Z"/><path class="cls-3" d="M73.21,41.63a9.6,9.6,0,0,0-10.49-.12c-2.94,2.05-3,5.41-.16,7.52a9.62,9.62,0,0,0,10.49.12C76,47.1,76.06,43.73,73.21,41.63Z"/></g></g></svg>