<svg xmlns="http://www.w3.org/2000/svg" viewBox="0 0 74.27 85"><defs><style>.cls-1{fill:#e6e6e6;}.cls-2{fill:#fff;}</style></defs><title>アセット 4</title><g id="レイヤー_2" data-name="レイヤー 2"><g id="レイヤー_1-2" data-name="レイヤー 1"><path class="cls-1" d="M69.19,17.68l-26.68-16A10.41,10.41,0,0,0,37.61.22L37.27,0,37,.2a10.44,10.44,0,0,0-5.2,1.48l-26.68,16a10.46,10.46,0,0,0-5.08,9V58.54a10.46,10.46,0,0,0,5.08,9l26.68,16a10.44,10.44,0,0,0,10.75,0l26.68-16a10.46,10.46,0,0,0,5.08-9V26.65A10.46,10.46,0,0,0,69.19,17.68Z"/><path class="cls-2" d="M28.2,51.5c1.85,1,3.34.33,3.34-1.52a6.65,6.65,0,0,0-3.34-5.17c-1.85-1-3.35-.33-3.35,1.52A6.67,6.67,0,0,0,28.2,51.5Z"/><path class="cls-2" d="M9.52,60c1.84,1,3.34.33,3.34-1.52a6.68,6.68,0,0,0-3.34-5.17c-1.85-1-3.35-.33-3.35,1.52A6.67,6.67,0,0,0,9.52,60Z"/><path class="cls-2" d="M18.86,55.75c1.85,1,3.34.33,3.34-1.52a6.65,6.65,0,0,0-3.34-5.17c-1.85-1-3.35-.33-3.35,1.52A6.67,6.67,0,0,0,18.86,55.75Z"/><path class="cls-2" d="M64,34.63a6.66,6.66,0,0,0-3.34,5.17c0,1.84,1.5,2.53,3.34,1.52a6.67,6.67,0,0,0,3.35-5.17C67.37,34.3,65.87,33.62,64,34.63Z"/><path class="cls-2" d="M45.34,44.81A6.65,6.65,0,0,0,42,50c0,1.85,1.49,2.53,3.34,1.52a6.67,6.67,0,0,0,3.35-5.17C48.69,44.48,47.19,43.8,45.34,44.81Z"/><path class="cls-2" d="M64,53.31a6.68,6.68,0,0,0-3.34,5.17c0,1.85,1.5,2.53,3.34,1.52a6.67,6.67,0,0,0,3.35-5.17C67.37,53,65.87,52.3,64,53.31Z"/><path class="cls-2" d="M45.34,63.49A6.65,6.65,0,0,0,42,68.66c0,1.85,1.49,2.53,3.34,1.52A6.65,6.65,0,0,0,48.69,65C48.69,63.17,47.19,62.48,45.34,63.49Z"/><path d="M41.94,17.92a8.78,8.78,0,0,0-9.59-.11c-2.69,1.87-2.76,4.94-.15,6.87a8.78,8.78,0,0,0,9.59.11C44.47,22.92,44.54,19.84,41.94,17.92Z"/></g></g></svg>