<?xml version="1.0" encoding="utf-8"?>
<!-- Generator: Adobe Illustrator 23.1.1, SVG Export Plug-In . SVG Version: 6.00 Build 0)  -->
<svg version="1.1" id="レイヤー_1" xmlns="http://www.w3.org/2000/svg" xmlns:xlink="http://www.w3.org/1999/xlink" x="0px"
	 y="0px" viewBox="0 0 128 128" style="enable-background:new 0 0 128 128;" xml:space="preserve">
<style type="text/css">
	.st0{fill:#FE0312;}
	.st1{fill:#FFFFFF;}
	.st2{fill:#51C9FF;}
</style>
<title>アセット 3</title>
<g>
	<g id="レイヤー_1-2">
		<path class="st0" d="M113.1,26.8l-40.1-24c-2.2-1.3-4.8-2.1-7.4-2.2l-0.5-0.3l-0.4,0.3c-2.8,0-5.4,0.8-7.8,2.2l-40.1,24
			c-4.7,2.8-7.6,8-7.6,13.5v47.9c0,5.5,2.9,10.7,7.6,13.5l40.1,24c5,3,11.2,3,16.1,0l40.1-24c4.7-2.8,7.6-8,7.6-13.5V40.3
			C120.8,34.8,117.9,29.7,113.1,26.8z"/>
		<path class="st1" d="M51.6,77.6c2.8,1.5,5,0.5,5-2.3c-0.3-3.3-2.2-6.2-5-7.8c-2.8-1.5-5-0.5-5,2.3C46.8,73.1,48.7,76,51.6,77.6z"
			/>
		<path class="st1" d="M23.5,90.4c2.8,1.5,5,0.5,5-2.3c-0.3-3.3-2.2-6.1-5-7.8c-2.8-1.5-5-0.5-5,2.3C18.8,85.9,20.7,88.8,23.5,90.4z
			"/>
		<path class="st1" d="M37.5,84c2.8,1.5,5,0.5,5-2.3c-0.3-3.3-2.2-6.2-5-7.8c-2.8-1.5-5-0.5-5,2.3C32.8,79.5,34.7,82.4,37.5,84z"/>
		<path class="st1" d="M105.3,52.3c-2.8,1.6-4.7,4.5-5,7.8c0,2.8,2.3,3.8,5,2.3c2.8-1.6,4.7-4.5,5-7.8
			C110.4,51.8,108.1,50.8,105.3,52.3z"/>
		<path class="st1" d="M77.3,67.6c-2.8,1.6-4.7,4.5-5,7.8c0,2.8,2.2,3.8,5,2.3c2.8-1.6,4.7-4.5,5-7.8C82.3,67.1,80.1,66.1,77.3,67.6
			z"/>
		<path class="st1" d="M105.3,80.4c-2.8,1.6-4.7,4.5-5,7.8c0,2.8,2.3,3.8,5,2.3c2.8-1.6,4.7-4.5,5-7.8
			C110.4,79.9,108.1,78.8,105.3,80.4z"/>
		<path class="st1" d="M77.3,95.6c-2.8,1.6-4.7,4.5-5,7.8c0,2.8,2.2,3.8,5,2.3c2.9-1.6,4.7-4.5,5-7.8C82.3,95.2,80.1,94.1,77.3,95.6
			z"/>
		<path class="st2" d="M72.2,27.2c-4.3-2.9-10-3-14.4-0.2c-4,2.8-4.1,7.4-0.2,10.3c4.3,2.9,10,3,14.4,0.2
			C76,34.7,76.1,30.1,72.2,27.2z"/>
	</g>
</g>
</svg>
