<svg xmlns="http://www.w3.org/2000/svg" viewBox="0 0 129.71 119.4"><defs><style>.cls-1{fill:#e6e6e6;}.cls-2{fill:#fff;}</style></defs><title>アセット 5</title><g id="レイヤー_2" data-name="レイヤー 2"><g id="レイヤー_1-2" data-name="レイヤー 1"><path class="cls-1" d="M97.42,17.68l-26.68-16A10.45,10.45,0,0,0,65.84.22L65.49,0l-.3.2A10.51,10.51,0,0,0,60,1.68l-26.68,16a10.45,10.45,0,0,0-5.07,9V58.54a10.45,10.45,0,0,0,5.07,9L60,83.51a10.46,10.46,0,0,0,10.76,0l26.68-16a10.45,10.45,0,0,0,5.07-9V26.65A10.45,10.45,0,0,0,97.42,17.68Z"/><path class="cls-2" d="M56.43,51.5c1.84,1,3.34.33,3.34-1.52a6.68,6.68,0,0,0-3.34-5.17c-1.85-1-3.35-.33-3.35,1.52A6.67,6.67,0,0,0,56.43,51.5Z"/><path class="cls-2" d="M37.74,60c1.85,1,3.35.33,3.35-1.52a6.67,6.67,0,0,0-3.35-5.17c-1.84-1-3.34-.33-3.34,1.52A6.68,6.68,0,0,0,37.74,60Z"/><path class="cls-2" d="M47.09,55.75c1.84,1,3.34.33,3.34-1.52a6.68,6.68,0,0,0-3.34-5.17c-1.85-1-3.35-.33-3.35,1.52A6.67,6.67,0,0,0,47.09,55.75Z"/><path class="cls-2" d="M92.25,34.63A6.65,6.65,0,0,0,88.9,39.8c0,1.84,1.5,2.53,3.35,1.52a6.67,6.67,0,0,0,3.35-5.17C95.6,34.3,94.1,33.62,92.25,34.63Z"/><path class="cls-2" d="M73.57,44.81A6.67,6.67,0,0,0,70.22,50c0,1.85,1.5,2.53,3.35,1.52a6.65,6.65,0,0,0,3.34-5.17C76.91,44.48,75.42,43.8,73.57,44.81Z"/><path class="cls-2" d="M92.25,53.31a6.67,6.67,0,0,0-3.35,5.17c0,1.85,1.5,2.53,3.35,1.52a6.67,6.67,0,0,0,3.35-5.17C95.6,53,94.1,52.3,92.25,53.31Z"/><path class="cls-2" d="M73.57,63.49a6.67,6.67,0,0,0-3.35,5.17c0,1.85,1.5,2.53,3.35,1.52A6.64,6.64,0,0,0,76.91,65C76.91,63.17,75.42,62.48,73.57,63.49Z"/><path d="M70.16,17.92a8.76,8.76,0,0,0-9.58-.11c-2.69,1.87-2.76,4.94-.15,6.87a8.76,8.76,0,0,0,9.58.11C72.7,22.92,72.77,19.84,70.16,17.92Z"/><path class="cls-1" d="M11.52,101.05a1.47,1.47,0,0,1,.52-.68,1.72,1.72,0,0,1,.89-.18c.59,0,1,.11,1.15.33a2.56,2.56,0,0,1,.28,1.31l.06,3V105a1.77,1.77,0,0,1-.36,1.27,1.69,1.69,0,0,1-1.22.36,1.73,1.73,0,0,1-1.63-1.17c-.05-.11-.09-.2-.13-.27a3.25,3.25,0,0,0-1.29-1.44,3.7,3.7,0,0,0-1.92-.48,3.69,3.69,0,0,0-2.24.63,2,2,0,0,0-.85,1.64c0,.94,1.3,1.69,3.91,2.23l1,.22a8.63,8.63,0,0,1,4.28,2,4.91,4.91,0,0,1,1.32,3.62,5.27,5.27,0,0,1-1.92,4.36A8.75,8.75,0,0,1,7.9,119.4a15.68,15.68,0,0,1-2.5-.18,10.87,10.87,0,0,1-2.12-.57,1.67,1.67,0,0,1-.57.58,1.9,1.9,0,0,1-.9.17A2,2,0,0,1,.46,119a1.87,1.87,0,0,1-.4-1.31L0,114.12V114a2.08,2.08,0,0,1,.38-1.42,1.78,1.78,0,0,1,1.31-.4c.67,0,1.23.48,1.68,1.45l.24.54a4,4,0,0,0,1.67,1.76,5.4,5.4,0,0,0,2.62.59,3.6,3.6,0,0,0,2.2-.59,1.92,1.92,0,0,0,.78-1.64q0-1.65-3.55-2.49c-.7-.17-1.26-.3-1.67-.42a9,9,0,0,1-4.14-2,4.38,4.38,0,0,1-1.15-3.22,5.37,5.37,0,0,1,2-4.29,7.64,7.64,0,0,1,5.12-1.67,10,10,0,0,1,2.05.21A11.19,11.19,0,0,1,11.52,101.05Z"/><path class="cls-1" d="M34.32,115.56h.26a1.74,1.74,0,0,1,1.26.42,1.71,1.71,0,0,1,.43,1.24,1.64,1.64,0,0,1-.46,1.31,2.27,2.27,0,0,1-1.49.4H29.69a2.3,2.3,0,0,1-1.51-.39,1.68,1.68,0,0,1-.44-1.32,1.58,1.58,0,0,1,.44-1.27,2.3,2.3,0,0,1,1.51-.39h.54l-.64-1.8H23l-.66,1.8h.54a2.29,2.29,0,0,1,1.5.39,1.61,1.61,0,0,1,.45,1.27,1.67,1.67,0,0,1-.45,1.31,2.28,2.28,0,0,1-1.5.4h-4a2.26,2.26,0,0,1-1.5-.4,1.67,1.67,0,0,1-.45-1.31,1.71,1.71,0,0,1,.43-1.24,1.74,1.74,0,0,1,1.26-.42h.26L23,104.09H21.75a2.21,2.21,0,0,1-1.49-.4,1.6,1.6,0,0,1-.46-1.29,1.66,1.66,0,0,1,.46-1.31,2.27,2.27,0,0,1,1.49-.4h5.77a2,2,0,0,1,1.92,1.48v0Zm-8.06-11.47L24,110.58h4.46Z"/><path class="cls-1" d="M47.44,104.09v11.47H50a2.32,2.32,0,0,1,1.5.39,1.61,1.61,0,0,1,.45,1.27,1.63,1.63,0,0,1-.46,1.3,2.25,2.25,0,0,1-1.49.41H40.89a2.27,2.27,0,0,1-1.49-.4,1.64,1.64,0,0,1-.46-1.31,1.58,1.58,0,0,1,.45-1.27,2.29,2.29,0,0,1,1.5-.39h2.59V104.09H40.89a2.21,2.21,0,0,1-1.49-.4,1.6,1.6,0,0,1-.46-1.29,1.63,1.63,0,0,1,.45-1.29,2.29,2.29,0,0,1,1.5-.39H50a2.29,2.29,0,0,1,1.52.39A1.66,1.66,0,0,1,52,102.4a1.63,1.63,0,0,1-.45,1.29,2.21,2.21,0,0,1-1.5.4Z"/><path class="cls-1" d="M69.18,101.2a2.41,2.41,0,0,1,.63-.78,1.35,1.35,0,0,1,.82-.23,1.28,1.28,0,0,1,1.07.4A2.25,2.25,0,0,1,72,102l0,4a2.14,2.14,0,0,1-.34,1.43,1.68,1.68,0,0,1-1.26.37,1.42,1.42,0,0,1-1-.31,2.39,2.39,0,0,1-.59-1.14,3.71,3.71,0,0,0-1.28-2.11,4.07,4.07,0,0,0-2.42-.64,4.37,4.37,0,0,0-3.63,1.6,9.12,9.12,0,0,0,0,9.27A4.38,4.38,0,0,0,65.19,116,7.48,7.48,0,0,0,68.75,115a7.82,7.82,0,0,1,2.45-1.08,1.23,1.23,0,0,1,1,.51,1.91,1.91,0,0,1,.41,1.26c0,.9-.79,1.76-2.38,2.56a11.91,11.91,0,0,1-5.37,1.19,8.53,8.53,0,0,1-6.52-2.65,10.78,10.78,0,0,1,0-13.83,8.32,8.32,0,0,1,6.39-2.73,9.64,9.64,0,0,1,2.15.24A13.44,13.44,0,0,1,69.18,101.2Z"/><path class="cls-1" d="M83.25,100.19a8,8,0,0,1,6.23,2.7,11,11,0,0,1,0,13.82,8.55,8.55,0,0,1-12.47,0,11,11,0,0,1,0-13.81A8.06,8.06,0,0,1,83.25,100.19Zm0,3.56a3.61,3.61,0,0,0-3.11,1.6A7.57,7.57,0,0,0,79,109.8a7.67,7.67,0,0,0,1.13,4.45,3.81,3.81,0,0,0,6.23,0,9.31,9.31,0,0,0,0-8.91A3.65,3.65,0,0,0,83.25,103.75Z"/><path class="cls-1" d="M106,110.55a2.51,2.51,0,0,1,.78.89l.11.15,2.51,4h.47a1.92,1.92,0,0,1,1.35.42,1.6,1.6,0,0,1,.45,1.24,1.67,1.67,0,0,1-.45,1.31,2.28,2.28,0,0,1-1.5.4h-1.89a1.83,1.83,0,0,1-1.63-.91l0,0-3.76-5.8a1.74,1.74,0,0,0-.5-.51,1,1,0,0,0-.58-.18H99.85v4.06h.25a1.79,1.79,0,0,1,1.24,3,2.23,2.23,0,0,1-1.49.4h-4a2.24,2.24,0,0,1-1.48-.4,1.67,1.67,0,0,1-.44-1.31,1.71,1.71,0,0,1,.42-1.24,1.68,1.68,0,0,1,1.24-.42h.26V104.09h-.26a1.6,1.6,0,0,1-1.23-.44,2.07,2.07,0,0,1,0-2.55,2.17,2.17,0,0,1,1.47-.41H103a8.14,8.14,0,0,1,4.94,1.27,4.42,4.42,0,0,1,1.68,3.75,4.89,4.89,0,0,1-.93,3A5.39,5.39,0,0,1,106,110.55ZM99.67,104v4.35h2.08a5.29,5.29,0,0,0,2.69-.5,1.84,1.84,0,0,0,.76-1.67,1.93,1.93,0,0,0-.7-1.67,3.85,3.85,0,0,0-2.25-.51Z"/><path class="cls-1" d="M121,100.19a8,8,0,0,1,6.23,2.7,11,11,0,0,1,0,13.82,8.55,8.55,0,0,1-12.47,0,11,11,0,0,1,0-13.81A8.06,8.06,0,0,1,121,100.19Zm0,3.56a3.61,3.61,0,0,0-3.11,1.6,9.33,9.33,0,0,0,0,8.9,3.81,3.81,0,0,0,6.23,0,9.31,9.31,0,0,0,0-8.91A3.65,3.65,0,0,0,121,103.75Z"/></g></g></svg>