<?xml version="1.0" encoding="utf-8"?>
<!-- Generator: Adobe Illustrator 23.1.1, SVG Export Plug-In . SVG Version: 6.00 Build 0)  -->
<svg version="1.1" xmlns="http://www.w3.org/2000/svg" xmlns:xlink="http://www.w3.org/1999/xlink" x="0px" y="0px"
	 viewBox="0 0 306.1 85" style="enable-background:new 0 0 306.1 85;" xml:space="preserve">
<style type="text/css">
	.st0{fill:#FFFFFF;}
</style>
<g id="レイヤー_2">
</g>
<g id="レイヤー_1">
	<title>アセット 2</title>
	<path class="st0" d="M69.2,17.7l-26.7-16c-1.5-0.9-3.2-1.4-4.9-1.5L37.3,0L37,0.2c-1.8,0-3.6,0.5-5.2,1.5l-26.7,16
		C2,19.6,0,23,0,26.7v31.9c0,3.7,1.9,7.1,5.1,9l26.7,16c3.3,2,7.4,2,10.8,0l26.7-16c3.2-1.9,5.1-5.3,5.1-9v-32
		C74.3,23,72.4,19.6,69.2,17.7z M9.5,60c-1.9-1.1-3.1-3-3.3-5.2c0-1.8,1.5-2.5,3.3-1.5c1.8,1.1,3.1,3,3.3,5.2
		C12.8,60.3,11.3,61,9.5,60z M18.9,55.8c-1.9-1.1-3.2-3.1-3.4-5.2c0-1.8,1.5-2.5,3.4-1.5c1.9,1.1,3.1,3,3.3,5.2
		C22.2,56.1,20.8,56.8,18.9,55.8z M28.2,51.5c-1.9-1.1-3.1-3-3.4-5.2c0-1.8,1.5-2.5,3.4-1.5c1.9,1.1,3.1,3,3.3,5.2
		C31.5,51.8,30.1,52.5,28.2,51.5z M32.1,24.7c-2.6-2-2.5-5,0.2-6.9c2.9-1.9,6.7-1.8,9.6,0.1c2.6,1.9,2.6,5-0.2,6.9
		C38.8,26.7,35,26.6,32.1,24.7z M45.3,70.2c-1.8,1-3.3,0.3-3.3-1.5c0.2-2.2,1.4-4.1,3.3-5.2c1.9-1,3.4-0.3,3.3,1.5
		C48.5,67.2,47.2,69.1,45.3,70.2z M45.3,51.5c-1.8,1-3.3,0.3-3.3-1.5c0.2-2.2,1.4-4.1,3.3-5.2c1.9-1,3.4-0.3,3.3,1.5
		C48.4,48.5,47.2,50.4,45.3,51.5z M64,60c-1.8,1-3.3,0.3-3.3-1.5c0.2-2.2,1.4-4.1,3.3-5.2c1.9-1,3.4-0.3,3.3,1.5
		C67.1,57,65.9,58.9,64,60z M64,41.3c-1.8,1-3.3,0.3-3.3-1.5c0.2-2.2,1.4-4.1,3.3-5.2c1.9-1,3.4-0.3,3.3,1.5
		C67.1,38.3,65.9,40.2,64,41.3z"/>
	<path class="st0" d="M110.9,27.2c0.2-0.4,0.5-0.8,0.9-1.1c0.5-0.2,1-0.3,1.5-0.3c1,0,1.6,0.2,1.9,0.5c0.4,0.7,0.5,1.4,0.5,2.2
		l0.1,4.9v0.3c0.1,0.8-0.1,1.5-0.6,2.1c-0.6,0.4-1.3,0.7-2,0.6c-1.2,0-2.3-0.8-2.7-1.9l-0.2-0.5c-0.5-1-1.2-1.8-2.1-2.4
		c-1-0.5-2.1-0.8-3.2-0.8c-1.3-0.1-2.6,0.3-3.7,1.1c-0.9,0.6-1.4,1.6-1.4,2.7c0,1.6,2.2,2.8,6.4,3.7l1.7,0.4
		c3.3,0.7,5.6,1.8,7.1,3.2c1.5,1.6,2.3,3.8,2.2,6c0.2,2.8-1,5.4-3.2,7.2c-2.1,1.7-5.2,2.5-9.1,2.5c-1.4,0-2.8-0.1-4.1-0.3
		c-1.2-0.2-2.4-0.5-3.5-0.9c-0.2,0.4-0.5,0.8-0.9,1c-0.5,0.2-1,0.3-1.5,0.3c-0.8,0.1-1.6-0.1-2.2-0.6c-0.5-0.6-0.8-1.4-0.7-2.2
		l-0.1-6v-0.3c-0.1-0.8,0.1-1.7,0.6-2.3c0.6-0.5,1.4-0.7,2.2-0.7c1.1,0,2,0.8,2.8,2.4c0.2,0.4,0.3,0.7,0.4,0.9
		c0.6,1.2,1.6,2.3,2.8,2.9c1.3,0.7,2.8,1,4.3,1c1.3,0.1,2.6-0.3,3.6-1c0.9-0.6,1.4-1.6,1.3-2.7c0-1.8-2-3.2-5.9-4.1
		c-1.2-0.3-2.1-0.5-2.8-0.7c-3.3-0.9-5.6-1.9-6.8-3.2c-1.3-1.4-2-3.4-1.9-5.3c-0.1-2.7,1.1-5.4,3.3-7.1c2.4-1.9,5.4-2.9,8.4-2.8
		c1.1,0,2.3,0.1,3.4,0.4C108.8,26.4,109.9,26.8,110.9,27.2z"/>
	<path class="st0" d="M148.6,51.2h0.4c0.8-0.1,1.5,0.2,2.1,0.7c1,1.2,1,3,0,4.2c-0.7,0.5-1.6,0.7-2.5,0.7H141
		c-0.9,0.1-1.8-0.1-2.5-0.7c-0.6-0.6-0.8-1.4-0.7-2.2c-0.1-0.8,0.2-1.5,0.7-2.1c0.7-0.5,1.6-0.7,2.5-0.6h0.9l-1-3h-11l-1.1,3h0.9
		c0.9-0.1,1.8,0.2,2.5,0.7c0.5,0.6,0.8,1.3,0.7,2.1c0.1,0.8-0.2,1.6-0.7,2.2c-0.7,0.5-1.6,0.7-2.5,0.7h-6.6
		c-0.9,0.1-1.8-0.1-2.5-0.7c-0.5-0.6-0.8-1.4-0.7-2.2c0-0.7,0.2-1.5,0.7-2c0.6-0.5,1.3-0.8,2.1-0.7h0.4l6.8-18.9h-2
		c-0.9,0.1-1.8-0.2-2.5-0.7c-0.5-0.6-0.8-1.3-0.8-2.1c-0.1-0.8,0.2-1.6,0.8-2.2c0.7-0.5,1.6-0.7,2.5-0.7h9.5c1.5,0,2.8,1,3.2,2.4
		v0.1L148.6,51.2z M135.3,32.2L131.6,43h7.4L135.3,32.2z"/>
	<path class="st0" d="M170.3,32.2v18.9h4.3c0.9-0.1,1.7,0.2,2.5,0.7c0.5,0.6,0.8,1.3,0.8,2.1c0.1,0.8-0.2,1.6-0.8,2.2
		c-0.7,0.5-1.6,0.7-2.5,0.7h-15.1c-0.9,0.1-1.8-0.2-2.5-0.7c-0.6-0.6-0.8-1.4-0.8-2.2c-0.1-0.8,0.2-1.5,0.7-2.1
		c0.7-0.5,1.6-0.7,2.5-0.6h4.3v-19h-4.3c-0.9,0.1-1.8-0.2-2.5-0.7c-0.5-0.6-0.8-1.3-0.8-2.1c-0.1-0.8,0.2-1.6,0.7-2.1
		c0.7-0.5,1.6-0.7,2.5-0.6h15.1c0.9-0.1,1.8,0.1,2.5,0.6c0.5,0.6,0.8,1.4,0.7,2.1c0.1,0.8-0.2,1.6-0.7,2.1c-0.7,0.5-1.6,0.7-2.5,0.7
		H170.3z"/>
	<path class="st0" d="M206.2,27.5c0.2-0.5,0.6-0.9,1-1.3c0.4-0.3,0.9-0.4,1.4-0.4c0.7-0.1,1.3,0.2,1.8,0.7c0.4,0.7,0.6,1.5,0.5,2.3
		l0.1,6.6c0.1,0.8-0.1,1.7-0.6,2.4c-0.6,0.5-1.3,0.7-2.1,0.6c-0.6,0-1.2-0.1-1.6-0.5c-0.5-0.5-0.8-1.2-1-1.9c-0.3-1.4-1-2.6-2.1-3.5
		c-1.2-0.8-2.6-1.1-4-1.1c-2.3-0.1-4.5,0.8-6,2.6c-1.4,1.8-2.1,4.3-2.1,7.7s0.7,5.9,2.1,7.7c1.5,1.8,3.7,2.8,6,2.7
		c2.1-0.1,4.1-0.7,5.9-1.8c2.1-1.2,3.5-1.8,4-1.8c0.7,0,1.3,0.3,1.7,0.8c0.5,0.6,0.7,1.3,0.7,2.1c0,1.5-1.3,2.9-3.9,4.2
		c-2.8,1.4-5.8,2-8.9,2c-4.1,0.2-8-1.4-10.8-4.4c-2.7-2.9-4.1-6.8-4.1-11.5c-0.1-4.2,1.4-8.2,4.2-11.4c2.7-3,6.6-4.7,10.7-4.5
		c1.2,0,2.4,0.1,3.6,0.4C203.7,26.5,205,26.9,206.2,27.5z"/>
	<path class="st0" d="M229.4,25.8c3.9-0.1,7.7,1.5,10.3,4.5c2.7,3.2,4.2,7.2,4,11.4c0.2,4.2-1.3,8.3-4,11.4
		c-5.3,5.7-14.2,6-19.9,0.7c-0.2-0.2-0.4-0.4-0.7-0.7c-2.8-3.1-4.2-7.2-4.1-11.4c-0.2-4.2,1.3-8.3,4-11.4
		C221.7,27.3,225.5,25.7,229.4,25.8z M229.4,31.7c-2.1-0.1-4,0.9-5.1,2.6c-1.4,2.2-2,4.8-1.9,7.3c-0.1,2.6,0.5,5.1,1.9,7.3
		c2,2.8,5.9,3.5,8.8,1.5c0.6-0.4,1.1-0.9,1.5-1.5c1.4-2.2,2-4.8,1.9-7.4c0.2-2.6-0.5-5.1-1.9-7.3C233.4,32.6,231.5,31.6,229.4,31.7z
		"/>
	<path class="st0" d="M267,42.9c0.5,0.4,1,0.9,1.3,1.5l0.2,0.2l4.1,6.5h0.8c0.8-0.1,1.6,0.2,2.2,0.7c0.5,0.5,0.8,1.3,0.8,2
		c0.1,0.8-0.2,1.6-0.8,2.2c-0.7,0.5-1.6,0.7-2.5,0.7H270c-1.1,0-2.1-0.5-2.7-1.5h-0.1l-6.2-9.6c-0.2-0.3-0.5-0.6-0.8-0.8
		s-0.6-0.3-1-0.3h-2.4v6.7h0.4c0.8-0.1,1.5,0.2,2.1,0.7c0.5,0.5,0.7,1.3,0.7,2c0.1,0.8-0.2,1.6-0.7,2.2c-0.7,0.5-1.6,0.7-2.5,0.7
		h-6.6c-0.9,0.1-1.7-0.2-2.4-0.7c-0.5-0.6-0.8-1.4-0.7-2.2c-0.2-1.3,0.8-2.6,2.1-2.7c0.2,0,0.4,0,0.6,0h0.4v-19h-0.4
		c-0.7,0-1.5-0.2-2-0.7c-0.5-0.6-0.8-1.3-0.7-2.1c-0.1-0.8,0.2-1.6,0.8-2.1c0.7-0.5,1.6-0.7,2.4-0.7H262c3.6,0,6.3,0.7,8.1,2.1
		c1.9,1.5,2.9,3.8,2.8,6.2c0,1.8-0.5,3.5-1.5,4.9C270.3,41.3,268.7,42.4,267,42.9z M256.5,32.1v7.2h3.5c1.5,0.1,3.1-0.2,4.4-0.8
		c0.9-0.6,1.4-1.7,1.3-2.8c0.1-1-0.4-2.1-1.2-2.7c-1.1-0.7-2.4-1-3.7-0.8L256.5,32.1z"/>
	<path class="st0" d="M291.8,25.8c3.9-0.1,7.7,1.5,10.3,4.5c2.7,3.2,4.2,7.2,4,11.4c0.2,4.2-1.3,8.3-4,11.4
		c-5.3,5.7-14.2,6-19.9,0.7c-0.2-0.2-0.4-0.4-0.7-0.7c-2.8-3.1-4.2-7.2-4.1-11.4c-0.2-4.2,1.3-8.3,4-11.4
		C284.1,27.3,287.9,25.7,291.8,25.8z M291.8,31.7c-2.1-0.1-4,0.9-5.1,2.6c-1.4,2.2-2,4.8-1.9,7.3c-0.1,2.6,0.5,5.1,1.9,7.3
		c2,2.8,5.9,3.5,8.8,1.5c0.6-0.4,1.1-0.9,1.5-1.5c1.4-2.2,2-4.8,1.9-7.4c0.1-2.6-0.5-5.1-1.9-7.3C295.8,32.6,293.9,31.6,291.8,31.7z
		"/>
</g>
</svg>
