<svg xmlns="http://www.w3.org/2000/svg" viewBox="0 0 306.15 85"><defs><style>.cls-1{fill:#e6e6e6;}.cls-2{fill:#fff;}</style></defs><title>アセット 2</title><g id="レイヤー_2" data-name="レイヤー 2"><g id="レイヤー_1-2" data-name="レイヤー 1"><path class="cls-1" d="M69.19,17.68l-26.68-16A10.41,10.41,0,0,0,37.61.22L37.27,0,37,.2a10.44,10.44,0,0,0-5.2,1.48l-26.68,16a10.46,10.46,0,0,0-5.08,9V58.54a10.46,10.46,0,0,0,5.08,9l26.68,16a10.44,10.44,0,0,0,10.75,0l26.68-16a10.46,10.46,0,0,0,5.08-9V26.65A10.46,10.46,0,0,0,69.19,17.68Z"/><path class="cls-2" d="M28.2,51.5c1.85,1,3.34.33,3.34-1.52a6.65,6.65,0,0,0-3.34-5.17c-1.85-1-3.35-.33-3.35,1.52A6.67,6.67,0,0,0,28.2,51.5Z"/><path class="cls-2" d="M9.52,60c1.84,1,3.34.33,3.34-1.52a6.68,6.68,0,0,0-3.34-5.17c-1.85-1-3.35-.33-3.35,1.52A6.67,6.67,0,0,0,9.52,60Z"/><path class="cls-2" d="M18.86,55.75c1.85,1,3.34.33,3.34-1.52a6.65,6.65,0,0,0-3.34-5.17c-1.85-1-3.35-.33-3.35,1.52A6.67,6.67,0,0,0,18.86,55.75Z"/><path class="cls-2" d="M64,34.63a6.66,6.66,0,0,0-3.34,5.17c0,1.84,1.5,2.53,3.34,1.52a6.67,6.67,0,0,0,3.35-5.17C67.37,34.3,65.87,33.62,64,34.63Z"/><path class="cls-2" d="M45.34,44.81A6.65,6.65,0,0,0,42,50c0,1.85,1.49,2.53,3.34,1.52a6.67,6.67,0,0,0,3.35-5.17C48.69,44.48,47.19,43.8,45.34,44.81Z"/><path class="cls-2" d="M64,53.31a6.68,6.68,0,0,0-3.34,5.17c0,1.85,1.5,2.53,3.34,1.52a6.67,6.67,0,0,0,3.35-5.17C67.37,53,65.87,52.3,64,53.31Z"/><path class="cls-2" d="M45.34,63.49A6.65,6.65,0,0,0,42,68.66c0,1.85,1.49,2.53,3.34,1.52A6.65,6.65,0,0,0,48.69,65C48.69,63.17,47.19,62.48,45.34,63.49Z"/><path d="M41.94,17.92a8.78,8.78,0,0,0-9.59-.11c-2.69,1.87-2.76,4.94-.15,6.87a8.78,8.78,0,0,0,9.59.11C44.47,22.92,44.54,19.84,41.94,17.92Z"/><path d="M110.94,27.22a2.62,2.62,0,0,1,.87-1.12,2.83,2.83,0,0,1,1.47-.3c1,0,1.61.18,1.89.55a4,4,0,0,1,.47,2.17l.1,4.87v.28a2.93,2.93,0,0,1-.6,2.1,2.81,2.81,0,0,1-2,.59,2.87,2.87,0,0,1-2.7-1.93l-.2-.45a5.51,5.51,0,0,0-2.13-2.38,6.14,6.14,0,0,0-3.17-.8,6,6,0,0,0-3.7,1.06,3.23,3.23,0,0,0-1.41,2.7c0,1.56,2.15,2.78,6.45,3.68l1.73.36q4.88,1.07,7.06,3.25a8.06,8.06,0,0,1,2.18,6,8.67,8.67,0,0,1-3.17,7.2q-3.18,2.54-9.09,2.53a24.39,24.39,0,0,1-4.13-.31,18.46,18.46,0,0,1-3.52-.94,2.63,2.63,0,0,1-.94,1,3.11,3.11,0,0,1-1.47.29,3.22,3.22,0,0,1-2.23-.61A3,3,0,0,1,92,54.77l-.1-6v-.28a3.37,3.37,0,0,1,.62-2.33,2.9,2.9,0,0,1,2.17-.66c1.1,0,2,.79,2.77,2.39.16.38.3.68.4.88a6.57,6.57,0,0,0,2.76,2.92,8.83,8.83,0,0,0,4.33,1,6,6,0,0,0,3.63-1A3.19,3.19,0,0,0,109.9,49c0-1.81-2-3.19-5.86-4.12-1.17-.27-2.09-.5-2.77-.68C98,43.34,95.71,42.27,94.44,41a7.27,7.27,0,0,1-1.91-5.32,8.87,8.87,0,0,1,3.27-7.1,12.66,12.66,0,0,1,8.44-2.75,16,16,0,0,1,3.39.36A17.42,17.42,0,0,1,110.94,27.22Z"/><path d="M148.6,51.19H149a2.83,2.83,0,0,1,2.08.7,3.39,3.39,0,0,1,0,4.2,3.71,3.71,0,0,1-2.47.66H141a3.71,3.71,0,0,1-2.48-.65,2.72,2.72,0,0,1-.74-2.17,2.6,2.6,0,0,1,.74-2.1,3.77,3.77,0,0,1,2.48-.64h.89l-1-3h-11l-1.09,3h.89a3.8,3.8,0,0,1,2.48.65,2.65,2.65,0,0,1,.74,2.09,2.78,2.78,0,0,1-.74,2.16,3.74,3.74,0,0,1-2.48.66h-6.55a3.71,3.71,0,0,1-2.49-.66,2.78,2.78,0,0,1-.74-2.16,2.71,2.71,0,0,1,.72-2,2.81,2.81,0,0,1,2.08-.7h.43l6.8-18.94h-2a3.71,3.71,0,0,1-2.47-.66,2.7,2.7,0,0,1-.75-2.13,2.74,2.74,0,0,1,.75-2.16,3.71,3.71,0,0,1,2.47-.66h9.52a3.25,3.25,0,0,1,3.18,2.44v.07ZM135.29,32.25,131.61,43H139Z"/><path d="M170.28,32.25V51.19h4.27a3.77,3.77,0,0,1,2.47.65,2.62,2.62,0,0,1,.75,2.09,2.73,2.73,0,0,1-.76,2.15,3.67,3.67,0,0,1-2.46.67H159.46a3.71,3.71,0,0,1-2.47-.66,2.74,2.74,0,0,1-.75-2.16,2.6,2.6,0,0,1,.74-2.1,3.77,3.77,0,0,1,2.48-.64h4.27V32.25h-4.27a3.71,3.71,0,0,1-2.47-.66,2.7,2.7,0,0,1-.75-2.13,2.68,2.68,0,0,1,.74-2.14,3.83,3.83,0,0,1,2.48-.63h15.09a3.81,3.81,0,0,1,2.51.63,2.78,2.78,0,0,1,.71,2.14,2.7,2.7,0,0,1-.74,2.13,3.7,3.7,0,0,1-2.48.66Z"/><path d="M206.18,27.48a4,4,0,0,1,1-1.3,2.31,2.31,0,0,1,1.35-.38,2.1,2.1,0,0,1,1.76.66,3.7,3.7,0,0,1,.52,2.26l.06,6.6a3.53,3.53,0,0,1-.58,2.36,2.77,2.77,0,0,1-2.07.61,2.36,2.36,0,0,1-1.63-.51,4.11,4.11,0,0,1-1-1.88,6.06,6.06,0,0,0-2.11-3.48,6.64,6.64,0,0,0-4-1.06,7.17,7.17,0,0,0-6,2.64q-2.08,2.66-2.08,7.66t2.1,7.65a7.22,7.22,0,0,0,6,2.67,12.38,12.38,0,0,0,5.88-1.78c2.14-1.18,3.49-1.78,4-1.78a2.05,2.05,0,0,1,1.66.84,3.21,3.21,0,0,1,.67,2.08q0,2.23-3.93,4.22a19.47,19.47,0,0,1-8.86,2,14.09,14.09,0,0,1-10.77-4.39q-4.11-4.4-4.11-11.48a16.13,16.13,0,0,1,4.16-11.35A13.76,13.76,0,0,1,198.9,25.8a15.72,15.72,0,0,1,3.55.41A21.12,21.12,0,0,1,206.18,27.48Z"/><path d="M229.41,25.8a13.25,13.25,0,0,1,10.29,4.47,16.37,16.37,0,0,1,4,11.4,16.37,16.37,0,0,1-4,11.42,14.1,14.1,0,0,1-20.59,0,16.32,16.32,0,0,1-4.06-11.39,16.38,16.38,0,0,1,4-11.41A13.31,13.31,0,0,1,229.41,25.8Zm0,5.89a6,6,0,0,0-5.14,2.64,12.59,12.59,0,0,0-1.86,7.34A12.55,12.55,0,0,0,224.29,49a6.29,6.29,0,0,0,10.28,0,12.57,12.57,0,0,0,1.88-7.37,12.51,12.51,0,0,0-1.87-7.34A6,6,0,0,0,229.41,31.69Z"/><path d="M267,42.91a4.13,4.13,0,0,1,1.29,1.48l.18.25,4.14,6.55h.79a3.17,3.17,0,0,1,2.22.69,2.63,2.63,0,0,1,.75,2,2.74,2.74,0,0,1-.75,2.16,3.74,3.74,0,0,1-2.48.66H270a3,3,0,0,1-2.69-1.5l-.08,0L261,45.63a2.76,2.76,0,0,0-.81-.85,1.74,1.74,0,0,0-1-.29h-2.38v6.7h.4a2.77,2.77,0,0,1,2.07.7,2.74,2.74,0,0,1,.7,2,2.81,2.81,0,0,1-.72,2.16,3.63,3.63,0,0,1-2.45.66h-6.55a3.62,3.62,0,0,1-2.44-.66,2.78,2.78,0,0,1-.74-2.16,2.45,2.45,0,0,1,2.74-2.74h.44V32.25h-.44a2.73,2.73,0,0,1-2-.72,2.87,2.87,0,0,1-.71-2.07,2.75,2.75,0,0,1,.75-2.15,3.58,3.58,0,0,1,2.43-.67H262q5.38,0,8.15,2.09a7.27,7.27,0,0,1,2.77,6.19,8,8,0,0,1-1.54,4.92A8.85,8.85,0,0,1,267,42.91ZM256.53,32.1v7.18H260a8.62,8.62,0,0,0,4.44-.82,3,3,0,0,0,1.27-2.76A3.17,3.17,0,0,0,264.52,33a6.34,6.34,0,0,0-3.72-.85Z"/><path d="M291.83,25.8a13.24,13.24,0,0,1,10.28,4.47,16.37,16.37,0,0,1,4,11.4,16.37,16.37,0,0,1-4,11.42,14.1,14.1,0,0,1-20.59,0,16.32,16.32,0,0,1-4.06-11.39,16.38,16.38,0,0,1,4-11.41A13.31,13.31,0,0,1,291.83,25.8Zm0,5.89a6,6,0,0,0-5.15,2.64,12.59,12.59,0,0,0-1.86,7.34A12.55,12.55,0,0,0,286.7,49,6.29,6.29,0,0,0,297,49a12.57,12.57,0,0,0,1.88-7.37A12.51,12.51,0,0,0,297,34.33,6,6,0,0,0,291.83,31.69Z"/></g></g></svg>